<?xml version="1.0" encoding="UTF-8"?>
<svg id="Capa_2" data-name="Capa 2" xmlns="http://www.w3.org/2000/svg" viewBox="0 0 235.21 164.71">
  <defs>
    <style>
      .cls-1 {
        fill: #fff;
      }
    </style>
  </defs>
  <g id="Capa_1-2" data-name="Capa 1">
    <g>
      <polygon class="cls-1" points="125.54 107.91 134.09 88.16 129.54 88.16 123.45 102.27 117.44 88.16 112.5 88.16 121.02 107.91 125.54 107.91"/>
      <path class="cls-1" d="m139.31,90.61c.83,0,1.49-.24,1.99-.72.5-.48.75-1.09.75-1.82,0-.7-.25-1.26-.76-1.71-.51-.44-1.17-.66-1.97-.66s-1.47.24-1.98.71c-.51.47-.76,1.05-.76,1.75s.25,1.28.76,1.75c.51.47,1.17.71,1.98.71Z"/>
      <rect class="cls-1" x="137.11" y="92.73" width="4.4" height="15.18"/>
      <path class="cls-1" d="m149.97,107.13c1.28.67,2.74,1,4.37,1s2.99-.33,4.18-1c1.19-.67,2.06-1.61,2.62-2.84l-3.41-1.86c-.4.73-.89,1.26-1.48,1.59s-1.24.49-1.93.49c-.75,0-1.43-.17-2.03-.51s-1.08-.82-1.42-1.44-.52-1.37-.52-2.26.17-1.64.52-2.26c.35-.62.82-1.1,1.42-1.44.6-.34,1.28-.51,2.03-.51.7,0,1.34.17,1.93.51.59.34,1.09.87,1.48,1.58l3.41-1.83c-.56-1.24-1.44-2.2-2.62-2.86s-2.58-1-4.18-1-3.09.33-4.37,1c-1.28.67-2.28,1.59-3,2.76-.72,1.18-1.09,2.53-1.09,4.05s.36,2.85,1.09,4.03c.72,1.19,1.73,2.11,3,2.78Z"/>
      <path class="cls-1" d="m165.86,102.69c0,1.81.5,3.16,1.5,4.08,1,.91,2.39,1.37,4.18,1.37.68,0,1.33-.08,1.96-.24.63-.16,1.17-.4,1.62-.72l-1.19-3.1c-.49.38-1.08.56-1.78.56-.58,0-1.04-.17-1.38-.52-.34-.35-.51-.84-.51-1.48v-6.18h3.78v-3.39h-3.78v-3.7h-4.4v3.7h-2.34v3.39h2.34v6.24Z"/>
      <path class="cls-1" d="m181.44,107.12c1.25.68,2.68,1.02,4.3,1.02s3.03-.34,4.29-1.02c1.26-.68,2.25-1.6,2.96-2.78.71-1.18,1.07-2.52,1.07-4.02s-.36-2.9-1.07-4.06c-.71-1.17-1.7-2.08-2.96-2.75-1.26-.67-2.69-1-4.29-1s-3.05.33-4.3,1c-1.25.67-2.24,1.59-2.96,2.76-.72,1.18-1.09,2.53-1.09,4.05s.36,2.85,1.09,4.02c.72,1.18,1.71,2.1,2.96,2.78Zm.93-9.06c.35-.62.81-1.1,1.4-1.44.58-.34,1.24-.51,1.97-.51s1.39.17,1.98.51c.58.34,1.04.82,1.38,1.44.34.62.51,1.37.51,2.26s-.17,1.61-.51,2.24-.8,1.11-1.38,1.45c-.58.34-1.24.51-1.98.51s-1.39-.17-1.97-.51-1.05-.82-1.4-1.45-.52-1.38-.52-2.24.17-1.64.52-2.26Z"/>
      <path class="cls-1" d="m202.82,100.74c0-1.45.37-2.52,1.11-3.2.74-.69,1.72-1.03,2.92-1.03.17,0,.33,0,.48.01.15,0,.32.02.51.04v-4.06c-1.43,0-2.64.28-3.64.83-.64.36-1.16.84-1.58,1.41v-2.02h-4.2v15.18h4.4v-7.17Z"/>
      <rect class="cls-1" x="211.87" y="92.73" width="4.4" height="15.18"/>
      <path class="cls-1" d="m214.07,90.61c.83,0,1.49-.24,1.99-.72.5-.48.75-1.09.75-1.82,0-.7-.25-1.26-.76-1.71-.51-.44-1.17-.66-1.97-.66s-1.47.24-1.98.71c-.51.47-.76,1.05-.76,1.75s.25,1.28.76,1.75c.51.47,1.17.71,1.98.71Z"/>
      <path class="cls-1" d="m233.29,94.14c-1.28-1.09-3.08-1.64-5.39-1.64-1.2,0-2.39.16-3.56.48s-2.16.77-2.99,1.35l1.58,3.08c.55-.43,1.21-.78,1.99-1.03.78-.25,1.58-.38,2.38-.38,1.19,0,2.06.26,2.64.79.57.53.86,1.26.86,2.2h-3.5c-1.54,0-2.79.19-3.75.58-.96.39-1.66.92-2.1,1.59-.44.68-.66,1.47-.66,2.37s.23,1.65.68,2.34c.45.7,1.1,1.25,1.95,1.65.85.4,1.86.61,3.05.61,1.34,0,2.43-.25,3.27-.76.58-.35,1.02-.81,1.35-1.38v1.91h4.12v-8.66c0-2.31-.64-4.02-1.92-5.11Zm-2.48,8.97c-.26.68-.69,1.19-1.27,1.54-.58.35-1.24.52-1.98.52-.77,0-1.38-.16-1.82-.49-.44-.33-.66-.78-.66-1.34,0-.51.19-.93.58-1.27.39-.34,1.1-.51,2.13-.51h3.02v1.55Z"/>
      <rect class="cls-1" x="114.99" y="118.92" width="1.61" height="15.27"/>
      <path class="cls-1" d="m131.98,134.19v-6.65c0-1.1-.2-2.02-.6-2.75-.4-.73-.95-1.27-1.66-1.63-.71-.36-1.52-.53-2.45-.53-1.11,0-2.06.24-2.86.71-.65.38-1.14.89-1.51,1.5v-2.1h-1.48v11.45h1.55v-6.02c0-.87.16-1.62.49-2.24.33-.62.79-1.09,1.4-1.42.6-.33,1.31-.49,2.13-.49,1.09,0,1.94.31,2.54.93.6.62.91,1.53.91,2.74v6.5h1.55Z"/>
      <path class="cls-1" d="m141.99,133.9c.71-.27,1.24-.65,1.61-1.13.37-.49.56-1.06.56-1.73,0-.63-.13-1.13-.4-1.52s-.63-.68-1.07-.89-.93-.38-1.46-.5c-.53-.12-1.06-.23-1.59-.32s-1.02-.2-1.46-.34c-.44-.14-.8-.33-1.07-.58-.27-.25-.4-.59-.4-1.02,0-.55.24-1.01.73-1.36.49-.36,1.25-.53,2.28-.53.58,0,1.16.08,1.74.23s1.13.4,1.64.75l.68-1.24c-.48-.32-1.09-.58-1.83-.77-.74-.2-1.48-.29-2.22-.29-.97,0-1.8.14-2.48.43-.68.28-1.19.67-1.54,1.17-.35.49-.52,1.05-.52,1.68s.13,1.18.4,1.57c.27.39.62.7,1.06.93.44.23.92.4,1.45.51.53.12,1.07.22,1.6.31.54.09,1.03.19,1.46.32.44.12.79.31,1.06.55s.4.57.4.99c0,.57-.24,1.02-.72,1.36s-1.27.51-2.36.51c-.8,0-1.56-.13-2.29-.38-.73-.25-1.32-.56-1.79-.91l-.7,1.22c.48.41,1.14.75,1.98,1.01.84.27,1.74.4,2.68.4,1,0,1.86-.13,2.56-.4Z"/>
      <path class="cls-1" d="m152.11,134.11c.43-.13.8-.33,1.1-.61l-.55-1.11c-.45.39-1.02.59-1.7.59-.64,0-1.13-.18-1.47-.54s-.51-.88-.51-1.55v-6.85h3.49v-1.29h-3.49v-2.53h-1.55v2.53h-2.05v1.29h2.05v6.94c0,1.06.29,1.88.87,2.47.58.58,1.41.87,2.49.87.45,0,.89-.07,1.32-.2Z"/>
      <path class="cls-1" d="m158.12,119.08c0-.31-.11-.56-.33-.76-.22-.2-.49-.31-.81-.31s-.59.11-.81.32c-.22.21-.33.47-.33.77s.11.57.33.79c.22.22.49.33.81.33s.61-.11.82-.33c.21-.22.32-.49.32-.81Z"/>
      <rect class="cls-1" x="156.2" y="122.74" width="1.55" height="11.45"/>
      <path class="cls-1" d="m167.18,134.11c.43-.13.8-.33,1.1-.61l-.55-1.11c-.45.39-1.02.59-1.7.59-.64,0-1.13-.18-1.47-.54s-.51-.88-.51-1.55v-6.85h3.49v-1.29h-3.49v-2.53h-1.55v2.53h-2.05v1.29h2.05v6.94c0,1.06.29,1.88.87,2.47.58.58,1.41.87,2.49.87.45,0,.89-.07,1.32-.2Z"/>
      <path class="cls-1" d="m180.13,132.08v2.11h1.48v-11.45h-1.55v6c0,.87-.16,1.62-.47,2.25-.31.63-.76,1.1-1.35,1.43-.59.33-1.28.49-2.08.49-1.09,0-1.94-.31-2.54-.93-.6-.62-.91-1.54-.91-2.76v-6.48h-1.55v6.65c0,1.09.2,2,.6,2.73s.96,1.27,1.69,1.64c.73.36,1.58.55,2.55.55s1.91-.24,2.67-.71c.62-.38,1.1-.89,1.45-1.51Z"/>
      <path class="cls-1" d="m191.6,132.38c-.45.39-1.02.59-1.7.59-.64,0-1.13-.18-1.47-.54s-.51-.88-.51-1.55v-6.85h3.49v-1.29h-3.49v-2.53h-1.55v2.53h-2.05v1.29h2.05v6.94c0,1.06.29,1.88.87,2.47.58.58,1.41.87,2.49.87.45,0,.89-.07,1.32-.2.43-.13.8-.33,1.1-.61l-.55-1.11Z"/>
      <path class="cls-1" d="m199.58,134.3c.92,0,1.76-.16,2.52-.48.76-.32,1.4-.79,1.91-1.4l-.87-1c-.44.51-.96.89-1.56,1.13-.6.25-1.25.37-1.95.37-.89,0-1.68-.19-2.37-.56-.69-.37-1.23-.89-1.61-1.55-.32-.55-.5-1.19-.55-1.89h9.62c0-.09,0-.17.01-.25,0-.08.01-.16.01-.23,0-1.15-.24-2.16-.72-3.04s-1.14-1.56-1.97-2.05c-.84-.49-1.79-.73-2.87-.73s-2.02.25-2.87.75c-.85.5-1.52,1.19-2.01,2.06-.49.87-.73,1.88-.73,3.01s.25,2.14.76,3.02c.51.88,1.21,1.57,2.12,2.07.9.5,1.95.75,3.14.75Zm-3.99-8.27c.35-.65.84-1.16,1.46-1.53.62-.36,1.33-.55,2.12-.55s1.51.18,2.12.55c.61.36,1.09.87,1.45,1.52.29.52.45,1.11.51,1.76h-8.15c.06-.64.22-1.22.5-1.74Z"/>
      <path class="cls-1" d="m223.72,131.48c.5-.88.75-1.89.75-3.02s-.25-2.16-.75-3.03c-.5-.87-1.19-1.56-2.07-2.05-.88-.49-1.89-.74-3.02-.74s-2.12.25-2.99.74c-.87.49-1.56,1.18-2.07,2.05-.51.87-.76,1.88-.76,3.03s.25,2.14.76,3.02c.51.88,1.2,1.57,2.08,2.07.88.5,1.87.75,2.98.75s2.12-.25,3.01-.75c.89-.5,1.58-1.19,2.08-2.07Zm-2.89.89c-.64.37-1.37.56-2.2.56s-1.52-.19-2.16-.56c-.64-.37-1.15-.89-1.53-1.57-.38-.68-.57-1.46-.57-2.34s.19-1.69.57-2.36c.38-.67.89-1.19,1.53-1.56.64-.37,1.37-.56,2.18-.56s1.54.19,2.18.56c.64.37,1.15.89,1.52,1.56.37.67.56,1.45.56,2.36s-.19,1.67-.56,2.34c-.37.68-.88,1.2-1.52,1.57Z"/>
      <path class="cls-1" d="m230.1,119.75c.35-.36.85-.55,1.51-.55.33,0,.65.05.94.14.29.09.54.24.76.43l.52-1.16c-.28-.25-.62-.43-1.03-.55-.41-.12-.83-.17-1.27-.17-1.12,0-1.98.31-2.57.94-.6.63-.89,1.45-.89,2.47v1.44h-2.05v1.29h2.05v10.17h1.55v-10.17h3.49v-1.29h-3.53v-1.37c0-.71.17-1.25.52-1.61Z"/>
      <polygon class="cls-1" points="124.94 145.1 112.59 145.1 112.59 146.5 117.96 146.5 117.96 160.37 119.57 160.37 119.57 146.5 124.94 146.5 124.94 145.1"/>
      <path class="cls-1" d="m132.91,149.54c-.84-.49-1.79-.73-2.87-.73s-2.02.25-2.87.75c-.85.5-1.52,1.19-2.01,2.06-.49.87-.73,1.88-.73,3.01s.25,2.14.76,3.02c.51.88,1.21,1.57,2.12,2.07.9.5,1.95.75,3.14.75.92,0,1.76-.16,2.52-.48.76-.32,1.4-.79,1.91-1.4l-.87-1c-.44.51-.96.89-1.56,1.13-.6.25-1.25.37-1.95.37-.89,0-1.68-.19-2.37-.56-.69-.37-1.23-.89-1.61-1.55-.32-.55-.5-1.19-.55-1.89h9.62c0-.09,0-.17.01-.25,0-.08.01-.16.01-.23,0-1.15-.24-2.16-.72-3.04s-1.14-1.56-1.97-2.05Zm-6.94,4.42c.06-.64.22-1.22.5-1.74.35-.65.84-1.16,1.46-1.53.62-.36,1.33-.55,2.12-.55s1.51.18,2.12.55c.61.36,1.09.87,1.45,1.52.29.52.45,1.11.51,1.76h-8.15Z"/>
      <path class="cls-1" d="m140.91,150.72c.65-.37,1.39-.56,2.2-.56.68,0,1.32.14,1.9.41.58.28,1.07.71,1.46,1.29l1.16-.78c-.45-.76-1.07-1.32-1.85-1.7-.79-.38-1.67-.57-2.64-.57-1.13,0-2.15.25-3.04.74-.89.49-1.6,1.18-2.11,2.05-.51.87-.76,1.88-.76,3.03s.25,2.14.76,3.02c.51.88,1.21,1.57,2.11,2.07.89.5,1.91.75,3.04.75.97,0,1.85-.19,2.64-.58.79-.38,1.4-.95,1.85-1.69l-1.16-.79c-.39.57-.88.99-1.46,1.27-.58.28-1.21.41-1.9.41-.81,0-1.55-.19-2.2-.56-.65-.37-1.17-.89-1.55-1.56s-.57-1.45-.57-2.36.19-1.69.57-2.36c.38-.67.89-1.19,1.55-1.56Z"/>
      <path class="cls-1" d="m158.39,149.34c-.71-.36-1.52-.53-2.45-.53-1.11,0-2.06.24-2.86.71-.61.36-1.08.82-1.44,1.38v-6.71h-1.55v16.19h1.55v-6.02c0-.87.16-1.62.49-2.24.33-.62.79-1.09,1.4-1.42.6-.33,1.31-.49,2.13-.49,1.09,0,1.94.31,2.54.93.6.62.91,1.53.91,2.74v6.5h1.55v-6.65c0-1.1-.2-2.02-.6-2.75-.4-.73-.95-1.27-1.66-1.63Z"/>
      <path class="cls-1" d="m172.74,149.34c-.71-.36-1.52-.53-2.45-.53-1.11,0-2.06.24-2.86.71-.65.38-1.14.89-1.51,1.5v-2.1h-1.48v11.45h1.55v-6.02c0-.87.16-1.62.49-2.24.33-.62.79-1.09,1.4-1.42.6-.33,1.31-.49,2.13-.49,1.09,0,1.94.31,2.54.93.6.62.91,1.53.91,2.74v6.5h1.55v-6.65c0-1.1-.2-2.02-.6-2.75-.4-.73-.95-1.27-1.66-1.63Z"/>
      <path class="cls-1" d="m186.49,149.55c-.88-.49-1.89-.74-3.02-.74s-2.12.25-2.99.74c-.87.49-1.56,1.18-2.07,2.05-.51.87-.76,1.88-.76,3.03s.25,2.14.76,3.02c.51.88,1.2,1.57,2.08,2.07.88.5,1.87.75,2.98.75s2.12-.25,3.01-.75c.89-.5,1.58-1.19,2.08-2.07.5-.88.75-1.89.75-3.02s-.25-2.16-.75-3.03c-.5-.87-1.19-1.56-2.07-2.05Zm.7,7.43c-.37.68-.88,1.2-1.52,1.57-.64.37-1.37.56-2.2.56s-1.52-.19-2.16-.56c-.64-.37-1.15-.89-1.53-1.57-.38-.68-.57-1.46-.57-2.34s.19-1.69.57-2.36c.38-.67.89-1.19,1.53-1.56.64-.37,1.37-.56,2.18-.56s1.54.19,2.18.56c.64.37,1.15.89,1.52,1.56.37.67.56,1.45.56,2.36s-.19,1.67-.56,2.34Z"/>
      <rect class="cls-1" x="192.08" y="144.18" width="1.55" height="16.19"/>
      <path class="cls-1" d="m205.25,149.55c-.88-.49-1.89-.74-3.02-.74s-2.12.25-2.99.74c-.87.49-1.56,1.18-2.07,2.05-.51.87-.76,1.88-.76,3.03s.25,2.14.76,3.02c.51.88,1.2,1.57,2.08,2.07.88.5,1.87.75,2.98.75s2.12-.25,3.01-.75c.89-.5,1.58-1.19,2.08-2.07.5-.88.75-1.89.75-3.02s-.25-2.16-.75-3.03c-.5-.87-1.19-1.56-2.07-2.05Zm.7,7.43c-.37.68-.88,1.2-1.52,1.57-.64.37-1.37.56-2.2.56s-1.52-.19-2.16-.56c-.64-.37-1.15-.89-1.53-1.57-.38-.68-.57-1.46-.57-2.34s.19-1.69.57-2.36c.38-.67.89-1.19,1.53-1.56.64-.37,1.37-.56,2.18-.56s1.54.19,2.18.56c.64.37,1.15.89,1.52,1.56.37.67.56,1.45.56,2.36s-.19,1.67-.56,2.34Z"/>
      <path class="cls-1" d="m219.98,151.09c-.46-.71-1.05-1.27-1.79-1.65-.81-.42-1.73-.63-2.75-.63-1.09,0-2.07.23-2.95.7-.87.47-1.56,1.12-2.06,1.95-.5.84-.75,1.8-.75,2.89s.25,2.06.75,2.9c.5.84,1.19,1.5,2.06,1.97s1.85.71,2.95.71c1.02,0,1.93-.22,2.75-.65.7-.38,1.27-.91,1.72-1.57v1.46c0,1.42-.34,2.48-1.03,3.15-.68.68-1.75,1.01-3.21,1.01-.89,0-1.73-.14-2.52-.43s-1.46-.67-2-1.15l-.78,1.18c.6.57,1.37,1,2.33,1.31.96.31,1.96.46,3.01.46,1.89,0,3.32-.46,4.29-1.39.97-.92,1.45-2.37,1.45-4.35v-10.06h-1.48v2.17Zm-.59,5.45c-.38.63-.89,1.13-1.55,1.48-.65.36-1.4.53-2.25.53s-1.57-.18-2.24-.53c-.66-.36-1.18-.85-1.55-1.48-.37-.63-.56-1.36-.56-2.19s.19-1.56.56-2.18c.37-.62.89-1.12,1.55-1.47.66-.36,1.41-.53,2.24-.53s1.59.18,2.25.53c.65.36,1.17.85,1.55,1.47.38.63.57,1.35.57,2.18s-.19,1.56-.57,2.19Z"/>
      <path class="cls-1" d="m229.19,158.65l-4.32-9.73h-1.61l5.12,11.42-.49,1.12c-.33.71-.69,1.21-1.06,1.49-.37.28-.81.43-1.32.43-.42,0-.8-.08-1.15-.23-.34-.15-.66-.37-.95-.64l-.72,1.16c.35.35.77.61,1.25.79.49.17,1,.26,1.54.26s1.05-.09,1.51-.27.87-.49,1.25-.93c.38-.44.74-1.02,1.06-1.77l5.74-12.83h-1.53l-4.32,9.73Z"/>
      <path class="cls-1" d="m43.47,16.39c1.36-1.51,3.08-2.27,5.18-2.27,1.46,0,2.93.5,4.39,1.49,1.46.99,3.03,2.14,4.71,3.45,1.67,1.31,3.55,2.46,5.65,3.45,2.09.99,4.49,1.49,7.21,1.49,5.54,0,9.96-2.06,13.25-6.2,3.29-4.13,4.99-9.54,5.1-16.23h-12.39c-.11,2.61-.84,4.68-2.2,6.2-1.36,1.52-3.14,2.27-5.33,2.27-1.36,0-2.77-.5-4.23-1.49-1.47-.99-3.06-2.17-4.78-3.53-1.73-1.36-3.63-2.53-5.72-3.53-2.09-.99-4.5-1.49-7.22-1.49-5.54,0-9.94,2.07-13.17,6.2-3.24,4.13-4.97,9.7-5.18,16.7h12.39c.21-2.82.99-4.99,2.35-6.51Z"/>
      <polygon class="cls-1" points="0 39.08 54.17 131.88 73.6 98.05 38.17 39.08 0 39.08"/>
      <path class="cls-1" d="m93.55,35.33c-1.98,7.76-8.04,13.83-15.81,15.81,7.76,1.98,13.83,8.04,15.81,15.81,1.98-7.76,8.04-13.83,15.81-15.81-7.76-1.98-13.83-8.04-15.81-15.81Z"/>
      <rect class="cls-1" x="92.75" y="82.1" width="1.61" height="78.48"/>
    </g>
  </g>
</svg>